<svg version="1.1" id="Layer_1" xmlns="http://www.w3.org/2000/svg" xmlns:xlink="http://www.w3.org/1999/xlink" x="0px" y="0px"
	 width="100%" viewBox="0 0 264 271" enable-background="new 0 0 264 271" xml:space="preserve">
<path fill="#FBFBFB" opacity="1.000000" stroke="none" 
	d="
M1.000000,102.000000 
	C1.000000,68.000008 1.000000,34.500015 1.000000,1.000018 
	C88.999969,1.000012 176.999939,1.000012 264.999939,1.000006 
	C264.999939,91.333282 264.999939,181.666565 264.999969,271.999878 
	C177.000076,271.999939 89.000145,271.999939 1.000107,271.999969 
	C1.000000,215.500000 1.000000,159.000000 1.000000,102.000000 
M159.924164,246.948517 
	C158.799942,247.920090 157.727448,249.649109 156.542419,249.730026 
	C151.812042,250.052994 147.046661,249.863235 142.030991,249.863235 
	C142.030991,247.969757 142.031311,246.329590 142.030945,244.689423 
	C142.026642,225.360397 142.128311,206.029984 141.873032,186.704269 
	C141.843735,184.486115 140.337875,181.164856 138.596008,180.368317 
	C136.275726,179.307266 132.195496,179.154663 130.442947,180.564941 
	C128.425339,182.188507 127.256737,185.930237 127.215027,188.773972 
	C126.938942,207.597061 127.064545,226.426071 127.059494,245.253143 
	C127.059059,246.867111 127.059441,248.481079 127.059441,250.510101 
	C120.969223,249.971436 115.462608,249.484390 109.680893,248.973022 
	C109.680893,233.490250 109.731445,218.688004 109.657104,203.886398 
	C109.625420,197.578583 109.502602,191.261353 109.104630,184.968414 
	C108.788918,179.976212 105.070267,178.845810 100.935852,179.120300 
	C96.890076,179.388916 94.721741,181.772751 94.790833,185.982803 
	C94.823608,187.979858 94.717644,189.978775 94.716835,191.976883 
	C94.710007,208.902664 94.712936,225.828461 94.712936,243.394928 
	C92.267754,242.654266 90.331985,242.289383 88.584999,241.504379 
	C71.557541,233.853104 57.202194,222.663391 46.018448,207.767899 
	C22.287951,176.161560 16.258194,140.836823 26.730246,103.142227 
	C35.290352,72.329750 54.186047,49.025265 82.863632,34.284382 
	C103.819016,23.512871 126.246368,20.417297 149.349213,24.033310 
	C162.728363,26.127388 175.583511,30.476425 186.787231,38.969112 
	C191.764191,36.928375 196.872452,34.833801 203.609619,32.071320 
	C201.866608,31.238804 201.048553,30.969946 200.364944,30.503874 
	C180.236511,16.780403 158.011368,9.280840 133.652298,8.908933 
	C113.517624,8.601523 94.393723,13.103726 76.507385,22.640009 
	C51.190605,36.137905 32.546261,55.764843 20.727991,81.982368 
	C14.358992,96.111298 10.459567,110.631691 9.268903,126.206413 
	C8.268883,139.287384 9.111072,152.039246 11.956825,164.638229 
	C17.973690,191.276611 30.991251,213.973938 51.187840,232.570572 
	C70.885864,250.708160 94.157486,261.217499 120.464607,264.405029 
	C132.915405,265.913666 145.651123,265.134308 158.045593,262.146149 
	C180.780838,256.664948 200.710907,245.903641 217.519363,229.702469 
	C235.544128,212.328964 247.548264,191.254562 253.428833,166.953369 
	C260.515320,137.668701 257.735474,109.267876 244.456390,81.825867 
	C240.791153,84.141296 237.373276,86.300461 233.998795,88.432213 
	C265.930847,164.833603 215.001480,229.123703 174.875046,241.454727 
	C174.875046,228.203781 174.875031,215.059052 174.875031,201.914322 
	C174.875031,196.749680 175.156265,191.565384 174.797424,186.425797 
	C174.424362,181.082520 171.615402,178.803284 166.800247,179.110046 
	C162.140045,179.406906 160.015732,181.753830 160.000336,187.073883 
	C159.943436,206.723663 159.968689,226.373703 159.924164,246.948517 
M236.612656,52.501228 
	C236.612656,43.727303 236.612656,34.953381 236.612656,25.434538 
	C221.713058,31.745541 207.376251,37.818165 192.591568,44.080494 
	C196.426620,46.913570 199.513962,49.374107 202.789322,51.551868 
	C205.042282,53.049839 205.529648,54.401028 203.756012,56.652851 
	C199.573181,61.963425 195.547867,67.397949 191.450592,72.776054 
	C184.066803,82.468079 176.676941,92.155510 169.165176,102.008080 
	C167.700516,101.151566 166.507584,100.604607 165.485016,99.832138 
	C157.321930,93.665588 149.155731,87.501953 141.069580,81.235390 
	C138.239563,79.042191 136.204605,78.175285 132.630096,80.895401 
	C118.333794,91.774529 103.614960,102.097252 89.091888,112.679955 
	C81.063545,118.530060 73.113365,124.487434 64.106430,131.152359 
	C74.201508,131.152359 82.970055,131.246292 91.732758,131.062042 
	C93.233589,131.030487 94.880455,130.046005 96.169807,129.104523 
	C106.411713,121.625946 116.645927,114.133842 126.758369,106.481842 
	C135.953293,99.524132 135.835480,99.497009 144.982788,106.562691 
	C154.421295,113.853294 163.968674,121.002953 173.571243,128.292343 
	C175.013550,126.437233 176.131454,125.016449 177.231491,123.581963 
	C191.301636,105.233803 205.429428,86.929184 219.372223,68.484726 
	C221.450912,65.734901 223.007355,65.639931 225.217987,67.899986 
	C228.814438,71.576866 232.426422,75.238571 236.589630,79.474167 
	C236.589630,70.125648 236.589630,61.813473 236.612656,52.501228 
M195.907333,150.731232 
	C202.770279,147.874207 205.082321,144.440979 204.601044,137.834595 
	C157.628876,137.834595 110.656700,137.834595 63.694229,137.834595 
	C63.505898,145.408829 66.669861,149.485519 73.566826,150.651718 
	C76.162697,151.090652 78.813828,151.418732 81.440735,151.425568 
	C117.045921,151.518204 152.651291,151.561874 188.256592,151.550110 
	C190.537537,151.549347 192.818268,150.994461 195.907333,150.731232 
M150.498505,159.101318 
	C127.438232,159.101318 104.377968,159.101318 81.346466,159.101318 
	C80.740776,168.798355 83.953194,172.340286 93.148262,172.347519 
	C120.641266,172.369125 148.134308,172.350769 175.627335,172.328690 
	C184.902634,172.321243 187.813507,169.250641 187.786972,159.100830 
	C175.695587,159.100830 163.597504,159.100830 150.498505,159.101318 
z"/>
<path fill="#090909" opacity="1.000000" stroke="none" 
	d="
M159.943619,246.486084 
	C159.968689,226.373703 159.943436,206.723663 160.000336,187.073883 
	C160.015732,181.753830 162.140045,179.406906 166.800247,179.110046 
	C171.615402,178.803284 174.424362,181.082520 174.797424,186.425797 
	C175.156265,191.565384 174.875031,196.749680 174.875031,201.914322 
	C174.875031,215.059052 174.875046,228.203781 174.875046,241.454727 
	C215.001480,229.123703 265.930847,164.833603 233.998795,88.432213 
	C237.373276,86.300461 240.791153,84.141296 244.456390,81.825867 
	C257.735474,109.267876 260.515320,137.668701 253.428833,166.953369 
	C247.548264,191.254562 235.544128,212.328964 217.519363,229.702469 
	C200.710907,245.903641 180.780838,256.664948 158.045593,262.146149 
	C145.651123,265.134308 132.915405,265.913666 120.464607,264.405029 
	C94.157486,261.217499 70.885864,250.708160 51.187840,232.570572 
	C30.991251,213.973938 17.973690,191.276611 11.956825,164.638229 
	C9.111072,152.039246 8.268883,139.287384 9.268903,126.206413 
	C10.459567,110.631691 14.358992,96.111298 20.727991,81.982368 
	C32.546261,55.764843 51.190605,36.137905 76.507385,22.640009 
	C94.393723,13.103726 113.517624,8.601523 133.652298,8.908933 
	C158.011368,9.280840 180.236511,16.780403 200.364944,30.503874 
	C201.048553,30.969946 201.866608,31.238804 203.609619,32.071320 
	C196.872452,34.833801 191.764191,36.928375 186.787231,38.969112 
	C175.583511,30.476425 162.728363,26.127388 149.349213,24.033310 
	C126.246368,20.417297 103.819016,23.512871 82.863632,34.284382 
	C54.186047,49.025265 35.290352,72.329750 26.730246,103.142227 
	C16.258194,140.836823 22.287951,176.161560 46.018448,207.767899 
	C57.202194,222.663391 71.557541,233.853104 88.584999,241.504379 
	C90.331985,242.289383 92.267754,242.654266 94.712936,243.394928 
	C94.712936,225.828461 94.710007,208.902664 94.716835,191.976883 
	C94.717644,189.978775 94.823608,187.979858 94.790833,185.982803 
	C94.721741,181.772751 96.890076,179.388916 100.935852,179.120300 
	C105.070267,178.845810 108.788918,179.976212 109.104630,184.968414 
	C109.502602,191.261353 109.625420,197.578583 109.657104,203.886398 
	C109.731445,218.688004 109.680893,233.490250 109.680893,248.973022 
	C115.462608,249.484390 120.969223,249.971436 127.059441,250.510101 
	C127.059441,248.481079 127.059059,246.867111 127.059494,245.253143 
	C127.064545,226.426071 126.938942,207.597061 127.215027,188.773972 
	C127.256737,185.930237 128.425339,182.188507 130.442947,180.564941 
	C132.195496,179.154663 136.275726,179.307266 138.596008,180.368317 
	C140.337875,181.164856 141.843735,184.486115 141.873032,186.704269 
	C142.128311,206.029984 142.026642,225.360397 142.030945,244.689423 
	C142.031311,246.329590 142.030991,247.969757 142.030991,249.863235 
	C147.046661,249.863235 151.812042,250.052994 156.542419,249.730026 
	C157.727448,249.649109 158.799942,247.920090 159.943619,246.486084 
z"/>
<path fill="#080808" opacity="1.000000" stroke="none" 
	d="
M236.601135,53.001263 
	C236.589630,61.813473 236.589630,70.125648 236.589630,79.474167 
	C232.426422,75.238571 228.814438,71.576866 225.217987,67.899986 
	C223.007355,65.639931 221.450912,65.734901 219.372223,68.484726 
	C205.429428,86.929184 191.301636,105.233803 177.231491,123.581963 
	C176.131454,125.016449 175.013550,126.437233 173.571243,128.292343 
	C163.968674,121.002953 154.421295,113.853294 144.982788,106.562691 
	C135.835480,99.497009 135.953293,99.524132 126.758369,106.481842 
	C116.645927,114.133842 106.411713,121.625946 96.169807,129.104523 
	C94.880455,130.046005 93.233589,131.030487 91.732758,131.062042 
	C82.970055,131.246292 74.201508,131.152359 64.106430,131.152359 
	C73.113365,124.487434 81.063545,118.530060 89.091888,112.679955 
	C103.614960,102.097252 118.333794,91.774529 132.630096,80.895401 
	C136.204605,78.175285 138.239563,79.042191 141.069580,81.235390 
	C149.155731,87.501953 157.321930,93.665588 165.485016,99.832138 
	C166.507584,100.604607 167.700516,101.151566 169.165176,102.008080 
	C176.676941,92.155510 184.066803,82.468079 191.450592,72.776054 
	C195.547867,67.397949 199.573181,61.963425 203.756012,56.652851 
	C205.529648,54.401028 205.042282,53.049839 202.789322,51.551868 
	C199.513962,49.374107 196.426620,46.913570 192.591568,44.080494 
	C207.376251,37.818165 221.713058,31.745541 236.612656,25.434538 
	C236.612656,34.953381 236.612656,43.727303 236.601135,53.001263 
z"/>
<path fill="#030303" opacity="1.000000" stroke="none" 
	d="
M195.503220,150.714294 
	C192.818268,150.994461 190.537537,151.549347 188.256592,151.550110 
	C152.651291,151.561874 117.045921,151.518204 81.440735,151.425568 
	C78.813828,151.418732 76.162697,151.090652 73.566826,150.651718 
	C66.669861,149.485519 63.505898,145.408829 63.694229,137.834595 
	C110.656700,137.834595 157.628876,137.834595 204.601318,137.827698 
	C205.082321,144.440979 202.770279,147.874207 195.503220,150.714294 
z"/>
<path fill="#060606" opacity="1.000000" stroke="none" 
	d="
M150.998962,159.101074 
	C163.597504,159.100830 175.695587,159.100830 187.786972,159.100830 
	C187.813507,169.250641 184.902634,172.321243 175.627335,172.328690 
	C148.134308,172.350769 120.641266,172.369125 93.148262,172.347519 
	C83.953194,172.340286 80.740776,168.798355 81.346466,159.101318 
	C104.377968,159.101318 127.438232,159.101318 150.998962,159.101074 
z"/>
</svg>